<?xml version="1.0" encoding="UTF-8" standalone="no"?>
<svg xmlns="http://www.w3.org/2000/svg" xml:space="preserve" height="256" width="256" version="1.1" y="0px" x="0px" viewBox="0 0 256 256"><rect style="color-rendering:auto;color:#000000;isolation:auto;mix-blend-mode:normal;paint-order:stroke fill markers;shape-rendering:auto;solid-color:#000000;image-rendering:auto;fill:#df4141" ry="0" height="256" width="256" y=".2941" x="-.04274"/><path style="stroke-width:1.476;fill:#ffcfcf" d="m222.5 107.1c-7.9-9.29-19.4-14.6-31.7-14.6-0.1476-6.937-4.28-12.99-10.33-15.79 0.1476-0.738 0.1476-1.624 0.1476-2.361 0-13.14-10.77-23.91-23.91-23.91-0.8856 0-1.624 0-2.509 0.1476-5.313-9.298-15.2-15.05-26.12-15.05s-20.81 5.756-26.27 14.91c-0.8855-0.1476-1.624-0.1476-2.509-0.1476-13.14 0-23.91 10.77-23.91 23.91 0 0.738 0 1.624 0.1476 2.361-6.051 2.804-10.04 8.856-10.33 15.79-12.25 0-23.76 5.313-31.73 14.61-3.837 4.575-3.985 11.22-0.1476 15.79 6.642 8.118 15.94 13.28 26.12 14.91-0.5904 2.657-0.738 5.608-0.2952 8.413 0.4428 2.952 1.476 5.608 2.952 8.118-5.313 6.494-7.675 15.05-6.346 23.61 1.181 7.97 5.461 15.05 12.1 19.78 5.608 4.133 12.25 6.051 19.04 5.756 3.837 10.18 13.58 17.12 24.5 17.12 1.328 0 2.657-0.1476 3.985-0.2952 4.575-0.738 8.856-2.657 12.55-5.461 3.542 2.952 7.822 4.723 12.4 5.461 12.55 1.919 24.35-5.313 28.63-16.83 6.789 0.2952 13.43-1.771 19.04-5.756 6.494-4.723 10.77-11.81 12.1-19.78 1.328-8.56-1.033-16.97-6.346-23.61 1.476-2.509 2.509-5.166 2.952-8.118 0.4428-2.952 0.2952-5.756-0.2952-8.413 10.18-1.624 19.48-6.789 26.12-14.91 3.985-4.575 3.837-11.22 0-15.64z"/><path style="opacity:.8;stroke-width:1.476;fill:#3f3f3f" d="m152.7 162.6v2.361c0 7.527-3.542 14.91-9.593 19.48-8.856 6.789-21.25 6.789-29.96 0-6.051-4.575-9.593-11.95-9.593-19.48v-2.361c0-13.73-4.28-27.45-12.55-39.55-2.657-3.837-4.428-8.118-5.166-12.55 6.937-1.033 12.55-5.904 14.61-12.4 5.166-0.1476 9.889-2.066 13.87-5.166 8.56 4.428 19.19 4.428 27.75 0 3.985 3.099 8.708 4.871 13.87 5.166 2.066 6.494 7.675 11.51 14.61 12.4-0.738 4.428-2.509 8.708-5.166 12.55-8.413 12.25-12.69 25.83-12.69 39.55z"/><g transform="matrix(1.476 0 0 1.476 10.01 9.994)"><path d="m144 65.8c-5.4-6.3-13.2-9.9-21.5-9.9-0.1-4.7-2.9-8.8-7-10.7 0.1-0.5 0.1-1.1 0.1-1.6 0-8.9-7.3-16.2-16.2-16.2-0.6 0-1.1 0-1.7 0.1-3.6-6.3-10.3-10.2-17.7-10.2s-14.1 3.9-17.8 10.1c-0.6-0.1-1.1-0.1-1.7-0.1-8.9 0-16.2 7.3-16.2 16.2 0 0.5 0 1.1 0.1 1.6-4.1 1.9-6.8 6-7 10.7-8.3 0-16.1 3.6-21.5 9.9-2.6 3.1-2.7 7.6-0.1 10.7 4.5 5.5 10.8 9 17.7 10.1-0.4 1.8-0.5 3.8-0.2 5.7 0.3 2 1 3.8 2 5.5-3.6 4.4-5.2 10.2-4.3 16 0.8 5.4 3.7 10.2 8.2 13.4 3.8 2.8 8.3 4.1 12.9 3.9 2.6 6.9 9.2 11.6 16.6 11.6 0.9 0 1.8-0.1 2.7-0.2 3.1-0.5 6-1.8 8.5-3.7 2.4 2 5.3 3.2 8.4 3.7 8.5 1.3 16.5-3.6 19.4-11.4 4.6 0.2 9.1-1.2 12.9-3.9 4.4-3.2 7.3-8 8.2-13.4 0.9-5.8-0.7-11.5-4.3-16 1-1.7 1.7-3.5 2-5.5s0.2-3.9-0.2-5.7c6.9-1.1 13.2-4.6 17.7-10.1 2.7-3.1 2.6-7.6 0-10.6zm-27.6 55.4c-2.8 2.1-6.3 2.9-9.8 2.4-0.3 0-0.5-0.1-0.8-0.1-1.1-0.2-2.2 0.1-3 0.8-0.7 0.6-1.2 1.4-1.3 2.3-0.9 5.6-6.2 9.5-11.8 8.6-2.7-0.4-5-1.8-6.7-3.9-1.4-1.8-4.4-1.8-5.8 0-1.6 2.1-4 3.5-6.7 3.9s-5.5-0.2-7.7-1.9c-2.2-1.6-3.7-4-4.1-6.7-0.1-1-0.6-1.8-1.3-2.4-0.8-0.7-2-1-3-0.8-0.3 0.1-0.5 0.1-0.8 0.1-3.5 0.5-7-0.3-9.8-2.4s-4.7-5.1-5.2-8.6c-0.7-4.4 0.9-8.8 4.2-11.8 0.7-0.7 1.2-1.6 1.2-2.6s-0.3-2-1-2.7c-1.1-1.2-1.9-2.7-2.1-4.3s0-3.1 0.6-4.4c3.3-0.4 6.4-1.3 9.4-2.8 3.5 6.1 5.3 12.8 5.3 19.5v1.6c0 7.4 3.5 14.5 9.4 19.1 4.3 3.3 9.5 5 14.7 5s10.3-1.7 14.7-5c5.9-4.5 9.4-11.6 9.4-19.1v-1.6c0-6.7 1.8-13.4 5.3-19.5 2.9 1.4 6.1 2.4 9.4 2.8 0.6 1.4 0.8 2.9 0.6 4.4-0.3 1.6-1 3.1-2.1 4.3-0.7 0.7-1.1 1.7-1 2.7 0 1 0.5 1.9 1.2 2.6 3.3 3 4.9 7.4 4.2 11.8-0.9 3.6-2.8 6.6-5.6 8.7zm-94.8-49.4c-0.3-0.4-0.3-0.9 0-1.2 4.1-4.7 9.9-7.4 16.1-7.4h0.2c0.6 0 1.2 0.1 1.8 0.1 1 1.4 2.4 2.6 3.9 3.5 0.3 3.8 1.4 7.4 3.1 10.8-2.8 1.3-5.9 1.9-9.1 1.9-6.1 0-12-2.9-16-7.7zm23.2-15.6c0-2.5 1.8-4.5 4.3-4.7 1.1-0.1 2.1-0.7 2.8-1.7 0.6-1 0.7-2.1 0.4-3.2-0.3-1-0.5-2-0.5-3 0-4.9 4-8.8 8.8-8.8 0.9 0 1.8 0.1 2.6 0.4 1.8 0.6 3.8-0.4 4.5-2.1 2-5 6.8-8.3 12.3-8.3s10.3 3.2 12.3 8.2c0.7 1.8 2.7 2.7 4.5 2.1 0.8-0.3 1.7-0.4 2.6-0.4 4.9 0 8.8 4 8.8 8.8 0 1-0.2 2-0.5 3-0.4 1.1-0.2 2.3 0.4 3.2 0.6 1 1.6 1.6 2.8 1.7 2.5 0.2 4.3 2.3 4.3 4.7 0 2.6-2.1 4.8-4.8 4.8s-4.8-2.1-4.8-4.9c0.1-1.2-0.4-2.3-1.3-3-0.7-0.6-1.5-0.9-2.4-0.9-0.3 0-0.5 0-0.8 0.1-0.6 0.1-1.2 0.2-1.8 0.2-2.6 0-5.1-1.1-6.7-3.1-1.2-1.5-3.4-1.7-5-0.6-4.5 3.3-11 3.3-15.5 0-1.6-1.1-3.7-0.9-5 0.6-1.7 2-4.1 3.1-6.7 3.1-0.6 0-1.2-0.1-1.8-0.2-1.1-0.2-2.3 0.1-3.2 0.9s-1.3 1.9-1.3 3.1c0 2.6-2.1 4.8-4.8 4.8s-4.5-2.2-4.5-4.8zm51.9 47.2v1.6c0 5.1-2.4 10.1-6.5 13.2-6 4.6-14.4 4.6-20.3 0-4.1-3.1-6.5-8.1-6.5-13.2v-1.6c0-9.3-2.9-18.6-8.5-26.8-1.8-2.6-3-5.5-3.5-8.5 4.7-0.7 8.5-4 9.9-8.4 3.5-0.1 6.7-1.4 9.4-3.5 5.8 3 13 3 18.8 0 2.7 2.1 5.9 3.3 9.4 3.5 1.4 4.4 5.2 7.8 9.9 8.4-0.5 3-1.7 5.9-3.5 8.5-5.7 8.3-8.6 17.5-8.6 26.8zm25.5-23.9c-3.2 0-6.3-0.7-9.1-1.9 1.8-3.4 2.8-7.1 3.1-10.8 1.5-0.9 2.9-2 3.9-3.5 0.6-0.1 1.2-0.1 1.8-0.1 6.3 0 12.3 2.6 16.4 7.4 0.3 0.3 0.3 0.9 0 1.2-3.9 4.8-9.8 7.7-16.1 7.7z"/><path d="m69.9 107c-0.8 1.9 0 4 1.9 4.8l6.7 2.9c0.5 0.2 1 0.3 1.5 0.3s1-0.1 1.5-0.3l6.7-2.9c1.9-0.8 2.7-3 1.9-4.8-0.8-1.9-3-2.7-4.8-1.9l-5.2 2.3-5.2-2.3c-2-0.8-4.2 0.1-5 1.9z"/><circle cy="70" cx="65.7" r="3.9"/><circle cy="70" cx="94.3" r="3.9"/></g><path style="opacity:.8;stroke-width:1.476;fill:#3f3f3f" d="m41.88 116c-0.4428-0.5904-0.4428-1.328 0-1.771 6.051-6.937 14.61-10.92 23.76-10.92h0.2952c0.8856 0 1.771 0.1476 2.657 0.1476 1.476 2.066 3.542 3.837 5.756 5.166 0.4428 5.608 2.066 10.92 4.575 15.94-4.133 1.919-8.708 2.804-13.43 2.804-9.003 0-17.71-4.28-23.61-11.36z"/><path style="opacity:.8;stroke-width:1.476;fill:#3f3f3f" d="m190.4 127.4c-4.723 0-9.298-1.033-13.43-2.804 2.657-5.018 4.133-10.48 4.575-15.94 2.214-1.328 4.28-2.952 5.756-5.166 0.8856-0.1476 1.771-0.1476 2.657-0.1476 9.298 0 18.15 3.837 24.21 10.92 0.4428 0.4428 0.4428 1.328 0 1.771-5.756 7.084-14.46 11.36-23.76 11.36z"/></svg>
